<mxfile host="app.diagrams.net" modified="2020-12-09T02:58:27.180Z" agent="5.0 (Windows)" etag="Er33oxTXzpDUug7w108J" version="13.11.0" type="github">
  <diagram id="N5yJuAVbVqonQ4-ZS_9m" name="Page-1">
    <mxGraphModel dx="868" dy="1648" grid="1" gridSize="10" guides="1" tooltips="1" connect="1" arrows="1" fold="1" page="1" pageScale="1" pageWidth="827" pageHeight="1169" math="0" shadow="0">
      <root>
        <mxCell id="0" />
        <mxCell id="1" parent="0" />
        <mxCell id="xfWyNE92fD_703PU5gkh-207" style="edgeStyle=orthogonalEdgeStyle;rounded=0;orthogonalLoop=1;jettySize=auto;html=1;exitX=0.5;exitY=0;exitDx=0;exitDy=0;entryX=0.5;entryY=1;entryDx=0;entryDy=0;" edge="1" parent="1" source="xfWyNE92fD_703PU5gkh-1" target="xfWyNE92fD_703PU5gkh-51">
          <mxGeometry relative="1" as="geometry" />
        </mxCell>
        <mxCell id="xfWyNE92fD_703PU5gkh-208" style="edgeStyle=orthogonalEdgeStyle;rounded=0;orthogonalLoop=1;jettySize=auto;html=1;exitX=1;exitY=0;exitDx=0;exitDy=0;entryX=0;entryY=0.5;entryDx=0;entryDy=0;" edge="1" parent="1" source="xfWyNE92fD_703PU5gkh-1" target="xfWyNE92fD_703PU5gkh-68">
          <mxGeometry relative="1" as="geometry">
            <Array as="points">
              <mxPoint x="570" y="80" />
              <mxPoint x="570" y="-55" />
            </Array>
          </mxGeometry>
        </mxCell>
        <mxCell id="xfWyNE92fD_703PU5gkh-210" style="edgeStyle=orthogonalEdgeStyle;rounded=0;orthogonalLoop=1;jettySize=auto;html=1;exitX=0.5;exitY=1;exitDx=0;exitDy=0;entryX=-0.005;entryY=0.2;entryDx=0;entryDy=0;entryPerimeter=0;" edge="1" parent="1" source="xfWyNE92fD_703PU5gkh-1" target="xfWyNE92fD_703PU5gkh-84">
          <mxGeometry relative="1" as="geometry" />
        </mxCell>
        <mxCell id="xfWyNE92fD_703PU5gkh-1" value="Post" style="shape=table;startSize=30;container=1;collapsible=1;childLayout=tableLayout;fixedRows=1;rowLines=0;fontStyle=1;align=center;resizeLast=1;" vertex="1" parent="1">
          <mxGeometry x="334" y="80" width="186" height="270" as="geometry" />
        </mxCell>
        <mxCell id="xfWyNE92fD_703PU5gkh-2" value="" style="shape=partialRectangle;collapsible=0;dropTarget=0;pointerEvents=0;fillColor=none;top=0;left=0;bottom=1;right=0;points=[[0,0.5],[1,0.5]];portConstraint=eastwest;" vertex="1" parent="xfWyNE92fD_703PU5gkh-1">
          <mxGeometry y="30" width="186" height="30" as="geometry" />
        </mxCell>
        <mxCell id="xfWyNE92fD_703PU5gkh-3" value="" style="shape=partialRectangle;connectable=0;fillColor=none;top=0;left=0;bottom=0;right=0;fontStyle=1;overflow=hidden;" vertex="1" parent="xfWyNE92fD_703PU5gkh-2">
          <mxGeometry width="30" height="30" as="geometry" />
        </mxCell>
        <mxCell id="xfWyNE92fD_703PU5gkh-4" value="id_post" style="shape=partialRectangle;connectable=0;fillColor=none;top=0;left=0;bottom=0;right=0;align=left;spacingLeft=6;fontStyle=5;overflow=hidden;" vertex="1" parent="xfWyNE92fD_703PU5gkh-2">
          <mxGeometry x="30" width="156" height="30" as="geometry" />
        </mxCell>
        <mxCell id="xfWyNE92fD_703PU5gkh-5" value="" style="shape=partialRectangle;collapsible=0;dropTarget=0;pointerEvents=0;fillColor=none;top=0;left=0;bottom=0;right=0;points=[[0,0.5],[1,0.5]];portConstraint=eastwest;" vertex="1" parent="xfWyNE92fD_703PU5gkh-1">
          <mxGeometry y="60" width="186" height="30" as="geometry" />
        </mxCell>
        <mxCell id="xfWyNE92fD_703PU5gkh-6" value="" style="shape=partialRectangle;connectable=0;fillColor=none;top=0;left=0;bottom=0;right=0;editable=1;overflow=hidden;" vertex="1" parent="xfWyNE92fD_703PU5gkh-5">
          <mxGeometry width="30" height="30" as="geometry" />
        </mxCell>
        <mxCell id="xfWyNE92fD_703PU5gkh-7" value="nome_de_usuario" style="shape=partialRectangle;connectable=0;fillColor=none;top=0;left=0;bottom=0;right=0;align=left;spacingLeft=6;overflow=hidden;" vertex="1" parent="xfWyNE92fD_703PU5gkh-5">
          <mxGeometry x="30" width="156" height="30" as="geometry" />
        </mxCell>
        <mxCell id="xfWyNE92fD_703PU5gkh-8" value="" style="shape=partialRectangle;collapsible=0;dropTarget=0;pointerEvents=0;fillColor=none;top=0;left=0;bottom=0;right=0;points=[[0,0.5],[1,0.5]];portConstraint=eastwest;" vertex="1" parent="xfWyNE92fD_703PU5gkh-1">
          <mxGeometry y="90" width="186" height="30" as="geometry" />
        </mxCell>
        <mxCell id="xfWyNE92fD_703PU5gkh-9" value="" style="shape=partialRectangle;connectable=0;fillColor=none;top=0;left=0;bottom=0;right=0;editable=1;overflow=hidden;" vertex="1" parent="xfWyNE92fD_703PU5gkh-8">
          <mxGeometry width="30" height="30" as="geometry" />
        </mxCell>
        <mxCell id="xfWyNE92fD_703PU5gkh-10" value="conteudo" style="shape=partialRectangle;connectable=0;fillColor=none;top=0;left=0;bottom=0;right=0;align=left;spacingLeft=6;overflow=hidden;" vertex="1" parent="xfWyNE92fD_703PU5gkh-8">
          <mxGeometry x="30" width="156" height="30" as="geometry" />
        </mxCell>
        <mxCell id="xfWyNE92fD_703PU5gkh-11" value="" style="shape=partialRectangle;collapsible=0;dropTarget=0;pointerEvents=0;fillColor=none;top=0;left=0;bottom=0;right=0;points=[[0,0.5],[1,0.5]];portConstraint=eastwest;" vertex="1" parent="xfWyNE92fD_703PU5gkh-1">
          <mxGeometry y="120" width="186" height="30" as="geometry" />
        </mxCell>
        <mxCell id="xfWyNE92fD_703PU5gkh-12" value="" style="shape=partialRectangle;connectable=0;fillColor=none;top=0;left=0;bottom=0;right=0;editable=1;overflow=hidden;" vertex="1" parent="xfWyNE92fD_703PU5gkh-11">
          <mxGeometry width="30" height="30" as="geometry" />
        </mxCell>
        <mxCell id="xfWyNE92fD_703PU5gkh-13" value="legenda" style="shape=partialRectangle;connectable=0;fillColor=none;top=0;left=0;bottom=0;right=0;align=left;spacingLeft=6;overflow=hidden;" vertex="1" parent="xfWyNE92fD_703PU5gkh-11">
          <mxGeometry x="30" width="156" height="30" as="geometry" />
        </mxCell>
        <mxCell id="xfWyNE92fD_703PU5gkh-14" value="n_de_posts" style="shape=partialRectangle;connectable=0;fillColor=none;top=0;left=0;bottom=0;right=0;align=left;spacingLeft=6;overflow=hidden;" vertex="1" parent="1">
          <mxGeometry x="70" y="20" width="150" height="30" as="geometry" />
        </mxCell>
        <mxCell id="xfWyNE92fD_703PU5gkh-15" value="Enquete" style="shape=table;startSize=30;container=1;collapsible=1;childLayout=tableLayout;fixedRows=1;rowLines=0;fontStyle=1;align=center;resizeLast=1;" vertex="1" parent="1">
          <mxGeometry x="40" y="240" width="180" height="270" as="geometry" />
        </mxCell>
        <mxCell id="xfWyNE92fD_703PU5gkh-16" value="" style="shape=partialRectangle;collapsible=0;dropTarget=0;pointerEvents=0;fillColor=none;top=0;left=0;bottom=1;right=0;points=[[0,0.5],[1,0.5]];portConstraint=eastwest;" vertex="1" parent="xfWyNE92fD_703PU5gkh-15">
          <mxGeometry y="30" width="180" height="30" as="geometry" />
        </mxCell>
        <mxCell id="xfWyNE92fD_703PU5gkh-17" value="" style="shape=partialRectangle;connectable=0;fillColor=none;top=0;left=0;bottom=0;right=0;fontStyle=1;overflow=hidden;" vertex="1" parent="xfWyNE92fD_703PU5gkh-16">
          <mxGeometry width="30" height="30" as="geometry" />
        </mxCell>
        <mxCell id="xfWyNE92fD_703PU5gkh-18" value="id_enquete" style="shape=partialRectangle;connectable=0;fillColor=none;top=0;left=0;bottom=0;right=0;align=left;spacingLeft=6;fontStyle=5;overflow=hidden;" vertex="1" parent="xfWyNE92fD_703PU5gkh-16">
          <mxGeometry x="30" width="150" height="30" as="geometry" />
        </mxCell>
        <mxCell id="xfWyNE92fD_703PU5gkh-19" value="" style="shape=partialRectangle;collapsible=0;dropTarget=0;pointerEvents=0;fillColor=none;top=0;left=0;bottom=0;right=0;points=[[0,0.5],[1,0.5]];portConstraint=eastwest;" vertex="1" parent="xfWyNE92fD_703PU5gkh-15">
          <mxGeometry y="60" width="180" height="30" as="geometry" />
        </mxCell>
        <mxCell id="xfWyNE92fD_703PU5gkh-20" value="" style="shape=partialRectangle;connectable=0;fillColor=none;top=0;left=0;bottom=0;right=0;editable=1;overflow=hidden;" vertex="1" parent="xfWyNE92fD_703PU5gkh-19">
          <mxGeometry width="30" height="30" as="geometry" />
        </mxCell>
        <mxCell id="xfWyNE92fD_703PU5gkh-21" value="nome_de_usuario" style="shape=partialRectangle;connectable=0;fillColor=none;top=0;left=0;bottom=0;right=0;align=left;spacingLeft=6;overflow=hidden;" vertex="1" parent="xfWyNE92fD_703PU5gkh-19">
          <mxGeometry x="30" width="150" height="30" as="geometry" />
        </mxCell>
        <mxCell id="xfWyNE92fD_703PU5gkh-22" value="" style="shape=partialRectangle;collapsible=0;dropTarget=0;pointerEvents=0;fillColor=none;top=0;left=0;bottom=0;right=0;points=[[0,0.5],[1,0.5]];portConstraint=eastwest;" vertex="1" parent="xfWyNE92fD_703PU5gkh-15">
          <mxGeometry y="90" width="180" height="30" as="geometry" />
        </mxCell>
        <mxCell id="xfWyNE92fD_703PU5gkh-23" value="" style="shape=partialRectangle;connectable=0;fillColor=none;top=0;left=0;bottom=0;right=0;editable=1;overflow=hidden;" vertex="1" parent="xfWyNE92fD_703PU5gkh-22">
          <mxGeometry width="30" height="30" as="geometry" />
        </mxCell>
        <mxCell id="xfWyNE92fD_703PU5gkh-24" value="texto_alternativa_a" style="shape=partialRectangle;connectable=0;fillColor=none;top=0;left=0;bottom=0;right=0;align=left;spacingLeft=6;overflow=hidden;" vertex="1" parent="xfWyNE92fD_703PU5gkh-22">
          <mxGeometry x="30" width="150" height="30" as="geometry" />
        </mxCell>
        <mxCell id="xfWyNE92fD_703PU5gkh-25" value="" style="shape=partialRectangle;collapsible=0;dropTarget=0;pointerEvents=0;fillColor=none;top=0;left=0;bottom=0;right=0;points=[[0,0.5],[1,0.5]];portConstraint=eastwest;" vertex="1" parent="xfWyNE92fD_703PU5gkh-15">
          <mxGeometry y="120" width="180" height="30" as="geometry" />
        </mxCell>
        <mxCell id="xfWyNE92fD_703PU5gkh-26" value="" style="shape=partialRectangle;connectable=0;fillColor=none;top=0;left=0;bottom=0;right=0;editable=1;overflow=hidden;" vertex="1" parent="xfWyNE92fD_703PU5gkh-25">
          <mxGeometry width="30" height="30" as="geometry" />
        </mxCell>
        <mxCell id="xfWyNE92fD_703PU5gkh-27" value="texto_alternativa_b" style="shape=partialRectangle;connectable=0;fillColor=none;top=0;left=0;bottom=0;right=0;align=left;spacingLeft=6;overflow=hidden;" vertex="1" parent="xfWyNE92fD_703PU5gkh-25">
          <mxGeometry x="30" width="150" height="30" as="geometry" />
        </mxCell>
        <mxCell id="xfWyNE92fD_703PU5gkh-146" value="" style="shape=partialRectangle;collapsible=0;dropTarget=0;pointerEvents=0;fillColor=none;top=0;left=0;bottom=0;right=0;points=[[0,0.5],[1,0.5]];portConstraint=eastwest;" vertex="1" parent="xfWyNE92fD_703PU5gkh-15">
          <mxGeometry y="150" width="180" height="30" as="geometry" />
        </mxCell>
        <mxCell id="xfWyNE92fD_703PU5gkh-147" value="" style="shape=partialRectangle;connectable=0;fillColor=none;top=0;left=0;bottom=0;right=0;editable=1;overflow=hidden;" vertex="1" parent="xfWyNE92fD_703PU5gkh-146">
          <mxGeometry width="30" height="30" as="geometry" />
        </mxCell>
        <mxCell id="xfWyNE92fD_703PU5gkh-148" value="texto_alternativa_c" style="shape=partialRectangle;connectable=0;fillColor=none;top=0;left=0;bottom=0;right=0;align=left;spacingLeft=6;overflow=hidden;" vertex="1" parent="xfWyNE92fD_703PU5gkh-146">
          <mxGeometry x="30" width="150" height="30" as="geometry" />
        </mxCell>
        <mxCell id="xfWyNE92fD_703PU5gkh-149" value="" style="shape=partialRectangle;collapsible=0;dropTarget=0;pointerEvents=0;fillColor=none;top=0;left=0;bottom=0;right=0;points=[[0,0.5],[1,0.5]];portConstraint=eastwest;" vertex="1" parent="xfWyNE92fD_703PU5gkh-15">
          <mxGeometry y="180" width="180" height="30" as="geometry" />
        </mxCell>
        <mxCell id="xfWyNE92fD_703PU5gkh-150" value="" style="shape=partialRectangle;connectable=0;fillColor=none;top=0;left=0;bottom=0;right=0;editable=1;overflow=hidden;" vertex="1" parent="xfWyNE92fD_703PU5gkh-149">
          <mxGeometry width="30" height="30" as="geometry" />
        </mxCell>
        <mxCell id="xfWyNE92fD_703PU5gkh-151" value="n_votos_alternativa_a" style="shape=partialRectangle;connectable=0;fillColor=none;top=0;left=0;bottom=0;right=0;align=left;spacingLeft=6;overflow=hidden;" vertex="1" parent="xfWyNE92fD_703PU5gkh-149">
          <mxGeometry x="30" width="150" height="30" as="geometry" />
        </mxCell>
        <mxCell id="xfWyNE92fD_703PU5gkh-152" value="" style="shape=partialRectangle;collapsible=0;dropTarget=0;pointerEvents=0;fillColor=none;top=0;left=0;bottom=0;right=0;points=[[0,0.5],[1,0.5]];portConstraint=eastwest;" vertex="1" parent="xfWyNE92fD_703PU5gkh-15">
          <mxGeometry y="210" width="180" height="30" as="geometry" />
        </mxCell>
        <mxCell id="xfWyNE92fD_703PU5gkh-153" value="" style="shape=partialRectangle;connectable=0;fillColor=none;top=0;left=0;bottom=0;right=0;editable=1;overflow=hidden;" vertex="1" parent="xfWyNE92fD_703PU5gkh-152">
          <mxGeometry width="30" height="30" as="geometry" />
        </mxCell>
        <mxCell id="xfWyNE92fD_703PU5gkh-154" value="n_votos_alternativa_b" style="shape=partialRectangle;connectable=0;fillColor=none;top=0;left=0;bottom=0;right=0;align=left;spacingLeft=6;overflow=hidden;" vertex="1" parent="xfWyNE92fD_703PU5gkh-152">
          <mxGeometry x="30" width="150" height="30" as="geometry" />
        </mxCell>
        <mxCell id="xfWyNE92fD_703PU5gkh-177" value="" style="shape=partialRectangle;collapsible=0;dropTarget=0;pointerEvents=0;fillColor=none;top=0;left=0;bottom=0;right=0;points=[[0,0.5],[1,0.5]];portConstraint=eastwest;" vertex="1" parent="xfWyNE92fD_703PU5gkh-15">
          <mxGeometry y="240" width="180" height="30" as="geometry" />
        </mxCell>
        <mxCell id="xfWyNE92fD_703PU5gkh-178" value="" style="shape=partialRectangle;connectable=0;fillColor=none;top=0;left=0;bottom=0;right=0;editable=1;overflow=hidden;" vertex="1" parent="xfWyNE92fD_703PU5gkh-177">
          <mxGeometry width="30" height="30" as="geometry" />
        </mxCell>
        <mxCell id="xfWyNE92fD_703PU5gkh-179" value="n_votos_alternativa_c" style="shape=partialRectangle;connectable=0;fillColor=none;top=0;left=0;bottom=0;right=0;align=left;spacingLeft=6;overflow=hidden;" vertex="1" parent="xfWyNE92fD_703PU5gkh-177">
          <mxGeometry x="30" width="150" height="30" as="geometry" />
        </mxCell>
        <mxCell id="xfWyNE92fD_703PU5gkh-44" value="" style="shape=partialRectangle;collapsible=0;dropTarget=0;pointerEvents=0;fillColor=none;top=0;left=0;bottom=0;right=0;points=[[0,0.5],[1,0.5]];portConstraint=eastwest;" vertex="1" parent="1">
          <mxGeometry x="334" y="260" width="160" height="30" as="geometry" />
        </mxCell>
        <mxCell id="xfWyNE92fD_703PU5gkh-45" value="" style="shape=partialRectangle;connectable=0;fillColor=none;top=0;left=0;bottom=0;right=0;editable=1;overflow=hidden;" vertex="1" parent="xfWyNE92fD_703PU5gkh-44">
          <mxGeometry width="30" height="30" as="geometry" />
        </mxCell>
        <mxCell id="xfWyNE92fD_703PU5gkh-47" value="n_curtidas" style="shape=partialRectangle;connectable=0;fillColor=none;top=0;left=0;bottom=0;right=0;align=left;spacingLeft=6;overflow=hidden;" vertex="1" parent="1">
          <mxGeometry x="364" y="230" width="150" height="30" as="geometry" />
        </mxCell>
        <mxCell id="xfWyNE92fD_703PU5gkh-48" value="n_comentarios" style="shape=partialRectangle;connectable=0;fillColor=none;top=0;left=0;bottom=0;right=0;align=left;spacingLeft=6;overflow=hidden;" vertex="1" parent="1">
          <mxGeometry x="364" y="260" width="150" height="30" as="geometry" />
        </mxCell>
        <mxCell id="xfWyNE92fD_703PU5gkh-49" value="n_compartilhamentos" style="shape=partialRectangle;connectable=0;fillColor=none;top=0;left=0;bottom=0;right=0;align=left;spacingLeft=6;overflow=hidden;" vertex="1" parent="1">
          <mxGeometry x="364" y="290" width="150" height="30" as="geometry" />
        </mxCell>
        <mxCell id="xfWyNE92fD_703PU5gkh-50" value="data_de_postagem" style="shape=partialRectangle;connectable=0;fillColor=none;top=0;left=0;bottom=0;right=0;align=left;spacingLeft=6;overflow=hidden;" vertex="1" parent="1">
          <mxGeometry x="364" y="320" width="150" height="30" as="geometry" />
        </mxCell>
        <mxCell id="xfWyNE92fD_703PU5gkh-51" value="Curtida" style="shape=table;startSize=30;container=1;collapsible=1;childLayout=tableLayout;fixedRows=1;rowLines=0;fontStyle=1;align=center;resizeLast=1;" vertex="1" parent="1">
          <mxGeometry x="337" y="-130" width="180" height="120" as="geometry" />
        </mxCell>
        <mxCell id="xfWyNE92fD_703PU5gkh-52" value="" style="shape=partialRectangle;collapsible=0;dropTarget=0;pointerEvents=0;fillColor=none;top=0;left=0;bottom=1;right=0;points=[[0,0.5],[1,0.5]];portConstraint=eastwest;" vertex="1" parent="xfWyNE92fD_703PU5gkh-51">
          <mxGeometry y="30" width="180" height="30" as="geometry" />
        </mxCell>
        <mxCell id="xfWyNE92fD_703PU5gkh-53" value="" style="shape=partialRectangle;connectable=0;fillColor=none;top=0;left=0;bottom=0;right=0;fontStyle=1;overflow=hidden;" vertex="1" parent="xfWyNE92fD_703PU5gkh-52">
          <mxGeometry width="30" height="30" as="geometry" />
        </mxCell>
        <mxCell id="xfWyNE92fD_703PU5gkh-54" value="id_post" style="shape=partialRectangle;connectable=0;fillColor=none;top=0;left=0;bottom=0;right=0;align=left;spacingLeft=6;fontStyle=5;overflow=hidden;" vertex="1" parent="xfWyNE92fD_703PU5gkh-52">
          <mxGeometry x="30" width="150" height="30" as="geometry" />
        </mxCell>
        <mxCell id="xfWyNE92fD_703PU5gkh-55" value="" style="shape=partialRectangle;collapsible=0;dropTarget=0;pointerEvents=0;fillColor=none;top=0;left=0;bottom=0;right=0;points=[[0,0.5],[1,0.5]];portConstraint=eastwest;" vertex="1" parent="xfWyNE92fD_703PU5gkh-51">
          <mxGeometry y="60" width="180" height="30" as="geometry" />
        </mxCell>
        <mxCell id="xfWyNE92fD_703PU5gkh-56" value="" style="shape=partialRectangle;connectable=0;fillColor=none;top=0;left=0;bottom=0;right=0;editable=1;overflow=hidden;" vertex="1" parent="xfWyNE92fD_703PU5gkh-55">
          <mxGeometry width="30" height="30" as="geometry" />
        </mxCell>
        <mxCell id="xfWyNE92fD_703PU5gkh-57" value="nome_de_usuario" style="shape=partialRectangle;connectable=0;fillColor=none;top=0;left=0;bottom=0;right=0;align=left;spacingLeft=6;overflow=hidden;" vertex="1" parent="xfWyNE92fD_703PU5gkh-55">
          <mxGeometry x="30" width="150" height="30" as="geometry" />
        </mxCell>
        <mxCell id="xfWyNE92fD_703PU5gkh-58" value="" style="shape=partialRectangle;collapsible=0;dropTarget=0;pointerEvents=0;fillColor=none;top=0;left=0;bottom=0;right=0;points=[[0,0.5],[1,0.5]];portConstraint=eastwest;" vertex="1" parent="xfWyNE92fD_703PU5gkh-51">
          <mxGeometry y="90" width="180" height="30" as="geometry" />
        </mxCell>
        <mxCell id="xfWyNE92fD_703PU5gkh-59" value="" style="shape=partialRectangle;connectable=0;fillColor=none;top=0;left=0;bottom=0;right=0;editable=1;overflow=hidden;" vertex="1" parent="xfWyNE92fD_703PU5gkh-58">
          <mxGeometry width="30" height="30" as="geometry" />
        </mxCell>
        <mxCell id="xfWyNE92fD_703PU5gkh-60" value="data_da_curtida" style="shape=partialRectangle;connectable=0;fillColor=none;top=0;left=0;bottom=0;right=0;align=left;spacingLeft=6;overflow=hidden;" vertex="1" parent="xfWyNE92fD_703PU5gkh-58">
          <mxGeometry x="30" width="150" height="30" as="geometry" />
        </mxCell>
        <mxCell id="xfWyNE92fD_703PU5gkh-195" style="edgeStyle=orthogonalEdgeStyle;rounded=0;orthogonalLoop=1;jettySize=auto;html=1;entryX=0.6;entryY=0.022;entryDx=0;entryDy=0;entryPerimeter=0;" edge="1" parent="1" source="xfWyNE92fD_703PU5gkh-64" target="xfWyNE92fD_703PU5gkh-91">
          <mxGeometry relative="1" as="geometry" />
        </mxCell>
        <mxCell id="xfWyNE92fD_703PU5gkh-64" value="Comentário" style="shape=table;startSize=30;container=1;collapsible=1;childLayout=tableLayout;fixedRows=1;rowLines=0;fontStyle=1;align=center;resizeLast=1;" vertex="1" parent="1">
          <mxGeometry x="630" y="-130" width="180" height="150" as="geometry" />
        </mxCell>
        <mxCell id="xfWyNE92fD_703PU5gkh-65" value="" style="shape=partialRectangle;collapsible=0;dropTarget=0;pointerEvents=0;fillColor=none;top=0;left=0;bottom=1;right=0;points=[[0,0.5],[1,0.5]];portConstraint=eastwest;" vertex="1" parent="xfWyNE92fD_703PU5gkh-64">
          <mxGeometry y="30" width="180" height="30" as="geometry" />
        </mxCell>
        <mxCell id="xfWyNE92fD_703PU5gkh-66" value="" style="shape=partialRectangle;connectable=0;fillColor=none;top=0;left=0;bottom=0;right=0;fontStyle=1;overflow=hidden;" vertex="1" parent="xfWyNE92fD_703PU5gkh-65">
          <mxGeometry width="30" height="30" as="geometry" />
        </mxCell>
        <mxCell id="xfWyNE92fD_703PU5gkh-67" value="id_post" style="shape=partialRectangle;connectable=0;fillColor=none;top=0;left=0;bottom=0;right=0;align=left;spacingLeft=6;fontStyle=5;overflow=hidden;" vertex="1" parent="xfWyNE92fD_703PU5gkh-65">
          <mxGeometry x="30" width="150" height="30" as="geometry" />
        </mxCell>
        <mxCell id="xfWyNE92fD_703PU5gkh-68" value="" style="shape=partialRectangle;collapsible=0;dropTarget=0;pointerEvents=0;fillColor=none;top=0;left=0;bottom=0;right=0;points=[[0,0.5],[1,0.5]];portConstraint=eastwest;" vertex="1" parent="xfWyNE92fD_703PU5gkh-64">
          <mxGeometry y="60" width="180" height="30" as="geometry" />
        </mxCell>
        <mxCell id="xfWyNE92fD_703PU5gkh-69" value="" style="shape=partialRectangle;connectable=0;fillColor=none;top=0;left=0;bottom=0;right=0;editable=1;overflow=hidden;" vertex="1" parent="xfWyNE92fD_703PU5gkh-68">
          <mxGeometry width="30" height="30" as="geometry" />
        </mxCell>
        <mxCell id="xfWyNE92fD_703PU5gkh-70" value="nome_de_usuario" style="shape=partialRectangle;connectable=0;fillColor=none;top=0;left=0;bottom=0;right=0;align=left;spacingLeft=6;overflow=hidden;" vertex="1" parent="xfWyNE92fD_703PU5gkh-68">
          <mxGeometry x="30" width="150" height="30" as="geometry" />
        </mxCell>
        <mxCell id="xfWyNE92fD_703PU5gkh-74" value="" style="shape=partialRectangle;collapsible=0;dropTarget=0;pointerEvents=0;fillColor=none;top=0;left=0;bottom=0;right=0;points=[[0,0.5],[1,0.5]];portConstraint=eastwest;" vertex="1" parent="xfWyNE92fD_703PU5gkh-64">
          <mxGeometry y="90" width="180" height="30" as="geometry" />
        </mxCell>
        <mxCell id="xfWyNE92fD_703PU5gkh-75" value="" style="shape=partialRectangle;connectable=0;fillColor=none;top=0;left=0;bottom=0;right=0;editable=1;overflow=hidden;" vertex="1" parent="xfWyNE92fD_703PU5gkh-74">
          <mxGeometry width="30" height="30" as="geometry" />
        </mxCell>
        <mxCell id="xfWyNE92fD_703PU5gkh-76" value="texto" style="shape=partialRectangle;connectable=0;fillColor=none;top=0;left=0;bottom=0;right=0;align=left;spacingLeft=6;overflow=hidden;" vertex="1" parent="xfWyNE92fD_703PU5gkh-74">
          <mxGeometry x="30" width="150" height="30" as="geometry" />
        </mxCell>
        <mxCell id="xfWyNE92fD_703PU5gkh-71" value="" style="shape=partialRectangle;collapsible=0;dropTarget=0;pointerEvents=0;fillColor=none;top=0;left=0;bottom=0;right=0;points=[[0,0.5],[1,0.5]];portConstraint=eastwest;" vertex="1" parent="xfWyNE92fD_703PU5gkh-64">
          <mxGeometry y="120" width="180" height="30" as="geometry" />
        </mxCell>
        <mxCell id="xfWyNE92fD_703PU5gkh-72" value="" style="shape=partialRectangle;connectable=0;fillColor=none;top=0;left=0;bottom=0;right=0;editable=1;overflow=hidden;" vertex="1" parent="xfWyNE92fD_703PU5gkh-71">
          <mxGeometry width="30" height="30" as="geometry" />
        </mxCell>
        <mxCell id="xfWyNE92fD_703PU5gkh-73" value="data_do_comentario" style="shape=partialRectangle;connectable=0;fillColor=none;top=0;left=0;bottom=0;right=0;align=left;spacingLeft=6;overflow=hidden;" vertex="1" parent="xfWyNE92fD_703PU5gkh-71">
          <mxGeometry x="30" width="150" height="30" as="geometry" />
        </mxCell>
        <mxCell id="xfWyNE92fD_703PU5gkh-77" value="Compartilhamento" style="shape=table;startSize=30;container=1;collapsible=1;childLayout=tableLayout;fixedRows=1;rowLines=0;fontStyle=1;align=center;resizeLast=1;" vertex="1" parent="1">
          <mxGeometry x="590" y="330" width="200" height="150" as="geometry" />
        </mxCell>
        <mxCell id="xfWyNE92fD_703PU5gkh-78" value="" style="shape=partialRectangle;collapsible=0;dropTarget=0;pointerEvents=0;fillColor=none;top=0;left=0;bottom=1;right=0;points=[[0,0.5],[1,0.5]];portConstraint=eastwest;" vertex="1" parent="xfWyNE92fD_703PU5gkh-77">
          <mxGeometry y="30" width="200" height="30" as="geometry" />
        </mxCell>
        <mxCell id="xfWyNE92fD_703PU5gkh-79" value="" style="shape=partialRectangle;connectable=0;fillColor=none;top=0;left=0;bottom=0;right=0;fontStyle=1;overflow=hidden;" vertex="1" parent="xfWyNE92fD_703PU5gkh-78">
          <mxGeometry width="30" height="30" as="geometry" />
        </mxCell>
        <mxCell id="xfWyNE92fD_703PU5gkh-80" value="id_compartilhamento" style="shape=partialRectangle;connectable=0;fillColor=none;top=0;left=0;bottom=0;right=0;align=left;spacingLeft=6;fontStyle=5;overflow=hidden;" vertex="1" parent="xfWyNE92fD_703PU5gkh-78">
          <mxGeometry x="30" width="170" height="30" as="geometry" />
        </mxCell>
        <mxCell id="xfWyNE92fD_703PU5gkh-81" value="" style="shape=partialRectangle;collapsible=0;dropTarget=0;pointerEvents=0;fillColor=none;top=0;left=0;bottom=0;right=0;points=[[0,0.5],[1,0.5]];portConstraint=eastwest;" vertex="1" parent="xfWyNE92fD_703PU5gkh-77">
          <mxGeometry y="60" width="200" height="30" as="geometry" />
        </mxCell>
        <mxCell id="xfWyNE92fD_703PU5gkh-82" value="" style="shape=partialRectangle;connectable=0;fillColor=none;top=0;left=0;bottom=0;right=0;editable=1;overflow=hidden;" vertex="1" parent="xfWyNE92fD_703PU5gkh-81">
          <mxGeometry width="30" height="30" as="geometry" />
        </mxCell>
        <mxCell id="xfWyNE92fD_703PU5gkh-83" value="nome_de_usuario" style="shape=partialRectangle;connectable=0;fillColor=none;top=0;left=0;bottom=0;right=0;align=left;spacingLeft=6;overflow=hidden;" vertex="1" parent="xfWyNE92fD_703PU5gkh-81">
          <mxGeometry x="30" width="170" height="30" as="geometry" />
        </mxCell>
        <mxCell id="xfWyNE92fD_703PU5gkh-84" value="" style="shape=partialRectangle;collapsible=0;dropTarget=0;pointerEvents=0;fillColor=none;top=0;left=0;bottom=0;right=0;points=[[0,0.5],[1,0.5]];portConstraint=eastwest;" vertex="1" parent="xfWyNE92fD_703PU5gkh-77">
          <mxGeometry y="90" width="200" height="30" as="geometry" />
        </mxCell>
        <mxCell id="xfWyNE92fD_703PU5gkh-85" value="" style="shape=partialRectangle;connectable=0;fillColor=none;top=0;left=0;bottom=0;right=0;editable=1;overflow=hidden;" vertex="1" parent="xfWyNE92fD_703PU5gkh-84">
          <mxGeometry width="30" height="30" as="geometry" />
        </mxCell>
        <mxCell id="xfWyNE92fD_703PU5gkh-86" value="id_post_origem" style="shape=partialRectangle;connectable=0;fillColor=none;top=0;left=0;bottom=0;right=0;align=left;spacingLeft=6;overflow=hidden;" vertex="1" parent="xfWyNE92fD_703PU5gkh-84">
          <mxGeometry x="30" width="170" height="30" as="geometry" />
        </mxCell>
        <mxCell id="xfWyNE92fD_703PU5gkh-87" value="" style="shape=partialRectangle;collapsible=0;dropTarget=0;pointerEvents=0;fillColor=none;top=0;left=0;bottom=0;right=0;points=[[0,0.5],[1,0.5]];portConstraint=eastwest;" vertex="1" parent="xfWyNE92fD_703PU5gkh-77">
          <mxGeometry y="120" width="200" height="30" as="geometry" />
        </mxCell>
        <mxCell id="xfWyNE92fD_703PU5gkh-88" value="" style="shape=partialRectangle;connectable=0;fillColor=none;top=0;left=0;bottom=0;right=0;editable=1;overflow=hidden;" vertex="1" parent="xfWyNE92fD_703PU5gkh-87">
          <mxGeometry width="30" height="30" as="geometry" />
        </mxCell>
        <mxCell id="xfWyNE92fD_703PU5gkh-89" value="data_do_compartilhamento" style="shape=partialRectangle;connectable=0;fillColor=none;top=0;left=0;bottom=0;right=0;align=left;spacingLeft=6;overflow=hidden;" vertex="1" parent="xfWyNE92fD_703PU5gkh-87">
          <mxGeometry x="30" width="170" height="30" as="geometry" />
        </mxCell>
        <mxCell id="xfWyNE92fD_703PU5gkh-90" value="" style="shape=partialRectangle;connectable=0;fillColor=none;top=0;left=0;bottom=0;right=0;editable=1;overflow=hidden;" vertex="1" parent="1">
          <mxGeometry x="620" y="260" width="30" height="30" as="geometry" />
        </mxCell>
        <mxCell id="xfWyNE92fD_703PU5gkh-91" value="Conteudo" style="shape=table;startSize=30;container=1;collapsible=1;childLayout=tableLayout;fixedRows=1;rowLines=0;fontStyle=1;align=center;resizeLast=1;" vertex="1" parent="1">
          <mxGeometry x="600" y="110" width="200" height="90" as="geometry" />
        </mxCell>
        <mxCell id="xfWyNE92fD_703PU5gkh-92" value="" style="shape=partialRectangle;collapsible=0;dropTarget=0;pointerEvents=0;fillColor=none;top=0;left=0;bottom=1;right=0;points=[[0,0.5],[1,0.5]];portConstraint=eastwest;" vertex="1" parent="xfWyNE92fD_703PU5gkh-91">
          <mxGeometry y="30" width="200" height="30" as="geometry" />
        </mxCell>
        <mxCell id="xfWyNE92fD_703PU5gkh-93" value="" style="shape=partialRectangle;connectable=0;fillColor=none;top=0;left=0;bottom=0;right=0;fontStyle=1;overflow=hidden;" vertex="1" parent="xfWyNE92fD_703PU5gkh-92">
          <mxGeometry width="30" height="30" as="geometry" />
        </mxCell>
        <mxCell id="xfWyNE92fD_703PU5gkh-94" value="nome_do_arquivo" style="shape=partialRectangle;connectable=0;fillColor=none;top=0;left=0;bottom=0;right=0;align=left;spacingLeft=6;fontStyle=5;overflow=hidden;" vertex="1" parent="xfWyNE92fD_703PU5gkh-92">
          <mxGeometry x="30" width="170" height="30" as="geometry" />
        </mxCell>
        <mxCell id="xfWyNE92fD_703PU5gkh-95" value="" style="shape=partialRectangle;collapsible=0;dropTarget=0;pointerEvents=0;fillColor=none;top=0;left=0;bottom=0;right=0;points=[[0,0.5],[1,0.5]];portConstraint=eastwest;" vertex="1" parent="xfWyNE92fD_703PU5gkh-91">
          <mxGeometry y="60" width="200" height="30" as="geometry" />
        </mxCell>
        <mxCell id="xfWyNE92fD_703PU5gkh-96" value="" style="shape=partialRectangle;connectable=0;fillColor=none;top=0;left=0;bottom=0;right=0;editable=1;overflow=hidden;" vertex="1" parent="xfWyNE92fD_703PU5gkh-95">
          <mxGeometry width="30" height="30" as="geometry" />
        </mxCell>
        <mxCell id="xfWyNE92fD_703PU5gkh-97" value="tipo" style="shape=partialRectangle;connectable=0;fillColor=none;top=0;left=0;bottom=0;right=0;align=left;spacingLeft=6;overflow=hidden;" vertex="1" parent="xfWyNE92fD_703PU5gkh-95">
          <mxGeometry x="30" width="170" height="30" as="geometry" />
        </mxCell>
        <mxCell id="xfWyNE92fD_703PU5gkh-180" style="edgeStyle=orthogonalEdgeStyle;rounded=0;orthogonalLoop=1;jettySize=auto;html=1;exitX=1.006;exitY=1.2;exitDx=0;exitDy=0;entryX=0;entryY=0.5;entryDx=0;entryDy=0;exitPerimeter=0;" edge="1" parent="1" source="xfWyNE92fD_703PU5gkh-129" target="xfWyNE92fD_703PU5gkh-11">
          <mxGeometry relative="1" as="geometry" />
        </mxCell>
        <mxCell id="xfWyNE92fD_703PU5gkh-188" style="edgeStyle=orthogonalEdgeStyle;rounded=0;orthogonalLoop=1;jettySize=auto;html=1;exitX=0.5;exitY=0;exitDx=0;exitDy=0;entryX=0.5;entryY=0;entryDx=0;entryDy=0;" edge="1" parent="1" source="xfWyNE92fD_703PU5gkh-119" target="xfWyNE92fD_703PU5gkh-64">
          <mxGeometry relative="1" as="geometry">
            <Array as="points">
              <mxPoint x="125" y="-180" />
              <mxPoint x="720" y="-180" />
            </Array>
          </mxGeometry>
        </mxCell>
        <mxCell id="xfWyNE92fD_703PU5gkh-198" style="edgeStyle=orthogonalEdgeStyle;rounded=0;orthogonalLoop=1;jettySize=auto;html=1;exitX=0.25;exitY=1;exitDx=0;exitDy=0;entryX=0.25;entryY=0;entryDx=0;entryDy=0;" edge="1" parent="1" source="xfWyNE92fD_703PU5gkh-119" target="xfWyNE92fD_703PU5gkh-15">
          <mxGeometry relative="1" as="geometry">
            <mxPoint x="83" y="220" as="targetPoint" />
            <Array as="points">
              <mxPoint x="85" y="50" />
            </Array>
          </mxGeometry>
        </mxCell>
        <mxCell id="xfWyNE92fD_703PU5gkh-200" style="edgeStyle=orthogonalEdgeStyle;rounded=0;orthogonalLoop=1;jettySize=auto;html=1;entryX=0.706;entryY=-0.004;entryDx=0;entryDy=0;entryPerimeter=0;" edge="1" parent="1" target="xfWyNE92fD_703PU5gkh-15">
          <mxGeometry relative="1" as="geometry">
            <mxPoint x="160" y="50" as="sourcePoint" />
            <Array as="points">
              <mxPoint x="167" y="144" />
              <mxPoint x="167" y="144" />
            </Array>
          </mxGeometry>
        </mxCell>
        <mxCell id="xfWyNE92fD_703PU5gkh-119" value="Usuário" style="shape=table;startSize=30;container=1;collapsible=1;childLayout=tableLayout;fixedRows=1;rowLines=0;fontStyle=1;align=center;resizeLast=1;" vertex="1" parent="1">
          <mxGeometry x="40" y="-130" width="170" height="180" as="geometry" />
        </mxCell>
        <mxCell id="xfWyNE92fD_703PU5gkh-120" value="" style="shape=partialRectangle;collapsible=0;dropTarget=0;pointerEvents=0;fillColor=none;top=0;left=0;bottom=1;right=0;points=[[0,0.5],[1,0.5]];portConstraint=eastwest;" vertex="1" parent="xfWyNE92fD_703PU5gkh-119">
          <mxGeometry y="30" width="170" height="30" as="geometry" />
        </mxCell>
        <mxCell id="xfWyNE92fD_703PU5gkh-121" value="" style="shape=partialRectangle;connectable=0;fillColor=none;top=0;left=0;bottom=0;right=0;fontStyle=1;overflow=hidden;" vertex="1" parent="xfWyNE92fD_703PU5gkh-120">
          <mxGeometry width="30" height="30" as="geometry" />
        </mxCell>
        <mxCell id="xfWyNE92fD_703PU5gkh-122" value="nome_de_usuario" style="shape=partialRectangle;connectable=0;fillColor=none;top=0;left=0;bottom=0;right=0;align=left;spacingLeft=6;fontStyle=5;overflow=hidden;" vertex="1" parent="xfWyNE92fD_703PU5gkh-120">
          <mxGeometry x="30" width="140" height="30" as="geometry" />
        </mxCell>
        <mxCell id="xfWyNE92fD_703PU5gkh-123" value="" style="shape=partialRectangle;collapsible=0;dropTarget=0;pointerEvents=0;fillColor=none;top=0;left=0;bottom=0;right=0;points=[[0,0.5],[1,0.5]];portConstraint=eastwest;" vertex="1" parent="xfWyNE92fD_703PU5gkh-119">
          <mxGeometry y="60" width="170" height="30" as="geometry" />
        </mxCell>
        <mxCell id="xfWyNE92fD_703PU5gkh-124" value="" style="shape=partialRectangle;connectable=0;fillColor=none;top=0;left=0;bottom=0;right=0;editable=1;overflow=hidden;" vertex="1" parent="xfWyNE92fD_703PU5gkh-123">
          <mxGeometry width="30" height="30" as="geometry" />
        </mxCell>
        <mxCell id="xfWyNE92fD_703PU5gkh-125" value="nome_completo" style="shape=partialRectangle;connectable=0;fillColor=none;top=0;left=0;bottom=0;right=0;align=left;spacingLeft=6;overflow=hidden;" vertex="1" parent="xfWyNE92fD_703PU5gkh-123">
          <mxGeometry x="30" width="140" height="30" as="geometry" />
        </mxCell>
        <mxCell id="xfWyNE92fD_703PU5gkh-126" value="" style="shape=partialRectangle;collapsible=0;dropTarget=0;pointerEvents=0;fillColor=none;top=0;left=0;bottom=0;right=0;points=[[0,0.5],[1,0.5]];portConstraint=eastwest;" vertex="1" parent="xfWyNE92fD_703PU5gkh-119">
          <mxGeometry y="90" width="170" height="30" as="geometry" />
        </mxCell>
        <mxCell id="xfWyNE92fD_703PU5gkh-127" value="" style="shape=partialRectangle;connectable=0;fillColor=none;top=0;left=0;bottom=0;right=0;editable=1;overflow=hidden;" vertex="1" parent="xfWyNE92fD_703PU5gkh-126">
          <mxGeometry width="30" height="30" as="geometry" />
        </mxCell>
        <mxCell id="xfWyNE92fD_703PU5gkh-128" value="idade" style="shape=partialRectangle;connectable=0;fillColor=none;top=0;left=0;bottom=0;right=0;align=left;spacingLeft=6;overflow=hidden;" vertex="1" parent="xfWyNE92fD_703PU5gkh-126">
          <mxGeometry x="30" width="140" height="30" as="geometry" />
        </mxCell>
        <mxCell id="xfWyNE92fD_703PU5gkh-129" value="" style="shape=partialRectangle;collapsible=0;dropTarget=0;pointerEvents=0;fillColor=none;top=0;left=0;bottom=0;right=0;points=[[0,0.5],[1,0.5]];portConstraint=eastwest;" vertex="1" parent="xfWyNE92fD_703PU5gkh-119">
          <mxGeometry y="120" width="170" height="30" as="geometry" />
        </mxCell>
        <mxCell id="xfWyNE92fD_703PU5gkh-130" value="" style="shape=partialRectangle;connectable=0;fillColor=none;top=0;left=0;bottom=0;right=0;editable=1;overflow=hidden;" vertex="1" parent="xfWyNE92fD_703PU5gkh-129">
          <mxGeometry width="30" height="30" as="geometry" />
        </mxCell>
        <mxCell id="xfWyNE92fD_703PU5gkh-131" value="data_de_inscricao" style="shape=partialRectangle;connectable=0;fillColor=none;top=0;left=0;bottom=0;right=0;align=left;spacingLeft=6;overflow=hidden;" vertex="1" parent="xfWyNE92fD_703PU5gkh-129">
          <mxGeometry x="30" width="140" height="30" as="geometry" />
        </mxCell>
        <mxCell id="xfWyNE92fD_703PU5gkh-181" value="1" style="text;html=1;strokeColor=none;fillColor=none;align=center;verticalAlign=middle;whiteSpace=wrap;rounded=0;" vertex="1" parent="1">
          <mxGeometry x="220" width="40" height="20" as="geometry" />
        </mxCell>
        <mxCell id="xfWyNE92fD_703PU5gkh-183" value="n" style="text;html=1;strokeColor=none;fillColor=none;align=center;verticalAlign=middle;whiteSpace=wrap;rounded=0;" vertex="1" parent="1">
          <mxGeometry x="280" y="190" width="40" height="20" as="geometry" />
        </mxCell>
        <mxCell id="xfWyNE92fD_703PU5gkh-184" value="" style="endArrow=classic;html=1;exitX=1;exitY=0.25;exitDx=0;exitDy=0;entryX=0;entryY=0.5;entryDx=0;entryDy=0;" edge="1" parent="1" source="xfWyNE92fD_703PU5gkh-119" target="xfWyNE92fD_703PU5gkh-52">
          <mxGeometry width="50" height="50" relative="1" as="geometry">
            <mxPoint x="220" y="-50" as="sourcePoint" />
            <mxPoint x="440" y="-40" as="targetPoint" />
          </mxGeometry>
        </mxCell>
        <mxCell id="xfWyNE92fD_703PU5gkh-185" value="1" style="text;html=1;strokeColor=none;fillColor=none;align=center;verticalAlign=middle;whiteSpace=wrap;rounded=0;" vertex="1" parent="1">
          <mxGeometry x="210" y="-110" width="40" height="20" as="geometry" />
        </mxCell>
        <mxCell id="xfWyNE92fD_703PU5gkh-186" value="n" style="text;html=1;strokeColor=none;fillColor=none;align=center;verticalAlign=middle;whiteSpace=wrap;rounded=0;" vertex="1" parent="1">
          <mxGeometry x="297" y="-110" width="40" height="20" as="geometry" />
        </mxCell>
        <mxCell id="xfWyNE92fD_703PU5gkh-189" value="1" style="text;html=1;strokeColor=none;fillColor=none;align=center;verticalAlign=middle;whiteSpace=wrap;rounded=0;" vertex="1" parent="1">
          <mxGeometry x="125" y="-160" width="40" height="20" as="geometry" />
        </mxCell>
        <mxCell id="xfWyNE92fD_703PU5gkh-190" value="n" style="text;html=1;strokeColor=none;fillColor=none;align=center;verticalAlign=middle;whiteSpace=wrap;rounded=0;" vertex="1" parent="1">
          <mxGeometry x="720" y="-160" width="40" height="20" as="geometry" />
        </mxCell>
        <mxCell id="xfWyNE92fD_703PU5gkh-192" style="edgeStyle=orthogonalEdgeStyle;rounded=0;orthogonalLoop=1;jettySize=auto;html=1;exitX=1;exitY=0.5;exitDx=0;exitDy=0;entryX=0.5;entryY=0;entryDx=0;entryDy=0;" edge="1" parent="1" source="xfWyNE92fD_703PU5gkh-126" target="xfWyNE92fD_703PU5gkh-77">
          <mxGeometry relative="1" as="geometry">
            <Array as="points">
              <mxPoint x="300" y="-25" />
              <mxPoint x="300" y="40" />
              <mxPoint x="560" y="40" />
              <mxPoint x="560" y="280" />
            </Array>
          </mxGeometry>
        </mxCell>
        <mxCell id="xfWyNE92fD_703PU5gkh-193" value="1" style="text;html=1;strokeColor=none;fillColor=none;align=center;verticalAlign=middle;whiteSpace=wrap;rounded=0;" vertex="1" parent="1">
          <mxGeometry x="210" y="-50" width="40" height="20" as="geometry" />
        </mxCell>
        <mxCell id="xfWyNE92fD_703PU5gkh-194" value="n" style="text;html=1;strokeColor=none;fillColor=none;align=center;verticalAlign=middle;whiteSpace=wrap;rounded=0;" vertex="1" parent="1">
          <mxGeometry x="650" y="295" width="40" height="20" as="geometry" />
        </mxCell>
        <mxCell id="xfWyNE92fD_703PU5gkh-196" value="n" style="text;html=1;strokeColor=none;fillColor=none;align=center;verticalAlign=middle;whiteSpace=wrap;rounded=0;" vertex="1" parent="1">
          <mxGeometry x="720" y="20" width="40" height="20" as="geometry" />
        </mxCell>
        <mxCell id="xfWyNE92fD_703PU5gkh-197" value="n" style="text;html=1;strokeColor=none;fillColor=none;align=center;verticalAlign=middle;whiteSpace=wrap;rounded=0;" vertex="1" parent="1">
          <mxGeometry x="720" y="90" width="40" height="20" as="geometry" />
        </mxCell>
        <mxCell id="xfWyNE92fD_703PU5gkh-201" value="n" style="text;html=1;strokeColor=none;fillColor=none;align=center;verticalAlign=middle;whiteSpace=wrap;rounded=0;" vertex="1" parent="1">
          <mxGeometry x="40" y="220" width="40" height="20" as="geometry" />
        </mxCell>
        <mxCell id="xfWyNE92fD_703PU5gkh-202" value="n" style="text;html=1;strokeColor=none;fillColor=none;align=center;verticalAlign=middle;whiteSpace=wrap;rounded=0;" vertex="1" parent="1">
          <mxGeometry x="165" y="220" width="40" height="20" as="geometry" />
        </mxCell>
        <mxCell id="xfWyNE92fD_703PU5gkh-203" value="n" style="text;html=1;strokeColor=none;fillColor=none;align=center;verticalAlign=middle;whiteSpace=wrap;rounded=0;" vertex="1" parent="1">
          <mxGeometry x="165" y="50" width="40" height="20" as="geometry" />
        </mxCell>
        <mxCell id="xfWyNE92fD_703PU5gkh-204" value="1" style="text;html=1;strokeColor=none;fillColor=none;align=center;verticalAlign=middle;whiteSpace=wrap;rounded=0;" vertex="1" parent="1">
          <mxGeometry x="50" y="50" width="40" height="20" as="geometry" />
        </mxCell>
        <mxCell id="xfWyNE92fD_703PU5gkh-205" value="Fazer" style="text;html=1;strokeColor=none;fillColor=none;align=center;verticalAlign=middle;whiteSpace=wrap;rounded=0;" vertex="1" parent="1">
          <mxGeometry x="40" y="130" width="40" height="20" as="geometry" />
        </mxCell>
        <mxCell id="xfWyNE92fD_703PU5gkh-206" value="Responder" style="text;html=1;strokeColor=none;fillColor=none;align=center;verticalAlign=middle;whiteSpace=wrap;rounded=0;" vertex="1" parent="1">
          <mxGeometry x="180" y="130" width="40" height="20" as="geometry" />
        </mxCell>
        <mxCell id="xfWyNE92fD_703PU5gkh-209" style="edgeStyle=orthogonalEdgeStyle;rounded=0;orthogonalLoop=1;jettySize=auto;html=1;exitX=1;exitY=0.5;exitDx=0;exitDy=0;entryX=-0.01;entryY=0.733;entryDx=0;entryDy=0;entryPerimeter=0;" edge="1" parent="1" source="xfWyNE92fD_703PU5gkh-8" target="xfWyNE92fD_703PU5gkh-92">
          <mxGeometry relative="1" as="geometry">
            <Array as="points">
              <mxPoint x="550" y="185" />
              <mxPoint x="550" y="162" />
            </Array>
          </mxGeometry>
        </mxCell>
        <mxCell id="xfWyNE92fD_703PU5gkh-211" value="1" style="text;html=1;strokeColor=none;fillColor=none;align=center;verticalAlign=middle;whiteSpace=wrap;rounded=0;" vertex="1" parent="1">
          <mxGeometry x="390" y="60" width="40" height="20" as="geometry" />
        </mxCell>
        <mxCell id="xfWyNE92fD_703PU5gkh-212" value="1" style="text;html=1;strokeColor=none;fillColor=none;align=center;verticalAlign=middle;whiteSpace=wrap;rounded=0;" vertex="1" parent="1">
          <mxGeometry x="514" y="60" width="40" height="20" as="geometry" />
        </mxCell>
        <mxCell id="xfWyNE92fD_703PU5gkh-214" value="1" style="text;html=1;strokeColor=none;fillColor=none;align=center;verticalAlign=middle;whiteSpace=wrap;rounded=0;" vertex="1" parent="1">
          <mxGeometry x="420" y="350" width="40" height="20" as="geometry" />
        </mxCell>
        <mxCell id="xfWyNE92fD_703PU5gkh-215" value="n" style="text;html=1;strokeColor=none;fillColor=none;align=center;verticalAlign=middle;whiteSpace=wrap;rounded=0;" vertex="1" parent="1">
          <mxGeometry x="517" y="190" width="40" height="20" as="geometry" />
        </mxCell>
        <mxCell id="xfWyNE92fD_703PU5gkh-216" value="n" style="text;html=1;strokeColor=none;fillColor=none;align=center;verticalAlign=middle;whiteSpace=wrap;rounded=0;" vertex="1" parent="1">
          <mxGeometry x="390" y="-10" width="40" height="20" as="geometry" />
        </mxCell>
        <mxCell id="xfWyNE92fD_703PU5gkh-218" value="n" style="text;html=1;strokeColor=none;fillColor=none;align=center;verticalAlign=middle;whiteSpace=wrap;rounded=0;" vertex="1" parent="1">
          <mxGeometry x="590" y="-50" width="40" height="20" as="geometry" />
        </mxCell>
        <mxCell id="xfWyNE92fD_703PU5gkh-219" value="n" style="text;html=1;strokeColor=none;fillColor=none;align=center;verticalAlign=middle;whiteSpace=wrap;rounded=0;" vertex="1" parent="1">
          <mxGeometry x="570" y="130" width="40" height="20" as="geometry" />
        </mxCell>
        <mxCell id="xfWyNE92fD_703PU5gkh-220" value="n" style="text;html=1;strokeColor=none;fillColor=none;align=center;verticalAlign=middle;whiteSpace=wrap;rounded=0;" vertex="1" parent="1">
          <mxGeometry x="554" y="400" width="40" height="20" as="geometry" />
        </mxCell>
      </root>
    </mxGraphModel>
  </diagram>
</mxfile>
